<svg width="54" height="32" viewBox="0 0 54 32" fill="none" xmlns="http://www.w3.org/2000/svg">
<path d="M28.3879 12.826L25.9236 15.0856C22.5885 18.1443 18.7933 16.0646 17.5693 14.733C15.3596 12.3163 15.5321 8.57626 17.9308 6.37331L24.6503 0.216553H24.1082C19.3601 0.216553 14.7928 2.10303 11.4331 5.46089L3.53064 5.48555C2.08488 5.48555 0.901978 6.6684 0.901978 8.11429V21.2498C0.901978 22.6957 2.08488 23.8835 3.45671 23.8835L12.846 23.8785L20.2802 30.6041C22.5392 32.4429 25.8455 32.0927 27.6733 29.8433L29.1618 31.0969C30.4662 32.0915 32.3967 31.96 33.4646 30.6555L36.0423 27.4826L36.4837 27.8524C37.6132 28.7566 39.2668 28.5923 40.1803 27.4621L40.9669 26.4897C41.8771 25.3635 41.7045 23.7154 40.5808 22.8022L28.3879 12.826ZM50.8466 5.48555L42.9606 5.47522C39.5943 2.10832 35.0286 0.224304 30.2691 0.224304L29.5626 0.216553C28.9055 0.216553 28.2795 0.479345 27.7866 0.920839L19.7134 8.29678C19.7051 8.31322 19.6969 8.32966 19.6969 8.32966C18.3169 9.62841 18.3497 11.667 19.5162 12.9328C20.3069 13.7959 22.3913 14.71 24.127 13.1589C24.127 13.1486 24.1476 13.1486 24.1579 13.1383L30.7295 7.12954C31.2635 6.64695 32.0948 6.67777 32.5876 7.21174C33.0805 7.74571 33.0394 8.5779 32.5055 9.0711L30.3599 11.0332L42.3203 20.741C43.3159 21.5623 43.9221 22.6719 44.1373 23.8629L50.8466 23.8654C52.2924 23.8654 53.4753 22.6834 53.4753 21.2366V8.11594C53.4753 6.66101 52.3006 5.48555 50.8466 5.48555Z" fill="#F2994A"/>
</svg>
