<svg width="39" height="47" viewBox="0 0 39 47" fill="none" xmlns="http://www.w3.org/2000/svg">
<path d="M19.1884 27.3496C18.5386 27.3496 17.9033 27.1568 17.3629 26.7958C16.8226 26.4347 16.4014 25.9216 16.1527 25.3212C15.904 24.7207 15.839 24.0601 15.9658 23.4227C16.0925 22.7853 16.4055 22.1998 16.865 21.7403C17.3245 21.2808 17.91 20.9678 18.5474 20.841C19.1848 20.7142 19.8455 20.7793 20.4459 21.028C21.0463 21.2767 21.5595 21.6979 21.9205 22.2382C22.2816 22.7786 22.4743 23.4138 22.4743 24.0637C22.4743 24.9352 22.1281 25.7709 21.5119 26.3872C20.8957 27.0034 20.0599 27.3496 19.1884 27.3496ZM37.4864 25.8093L22.31 46.4074C22.2065 46.5453 22.0623 46.6472 21.8978 46.6986C21.7332 46.75 21.5566 46.7483 21.3931 46.6938C21.2295 46.6393 21.0872 46.5347 20.9864 46.3948C20.8856 46.2549 20.8314 46.0869 20.8314 45.9145V30.43C22.3801 30.0301 23.7298 29.0792 24.6275 27.7553C25.5252 26.4315 25.9093 24.8257 25.7077 23.239C25.5062 21.6522 24.7329 20.1935 23.5327 19.1361C22.3325 18.0787 20.7879 17.4954 19.1884 17.4954C17.5889 17.4954 16.0444 18.0787 14.8442 19.1361C13.644 20.1935 12.8707 21.6522 12.6692 23.239C12.4676 24.8257 12.8517 26.4315 13.7494 27.7553C14.6471 29.0792 15.9968 30.0301 17.5455 30.43V45.9145C17.5455 46.0869 17.4913 46.2549 17.3905 46.3948C17.2897 46.5347 17.1474 46.6393 16.9838 46.6938C16.8203 46.7483 16.6437 46.75 16.4791 46.6986C16.3146 46.6472 16.1704 46.5453 16.0669 46.4074L0.890484 25.8093C0.532973 25.3233 0.315276 24.7487 0.260976 24.1478C0.206677 23.5468 0.317845 22.9425 0.582437 22.4003L6.04513 11.3517V3.52728C6.04513 2.65583 6.39131 1.82006 7.00753 1.20385C7.62374 0.58764 8.4595 0.241455 9.33096 0.241455H29.0459C29.9174 0.241455 30.7532 0.58764 31.3694 1.20385C31.9856 1.82006 32.3318 2.65583 32.3318 3.52728V11.3517L37.7945 22.4003C38.0591 22.9425 38.1702 23.5468 38.1159 24.1478C38.0616 24.7487 37.8439 25.3233 37.4864 25.8093ZM29.0459 3.52728H9.33096V10.0989H29.0459V3.52728Z" fill="#F2994A"/>
</svg>
