<svg width="60" height="54" viewBox="0 0 60 54" fill="none" xmlns="http://www.w3.org/2000/svg">
<path d="M58.9125 35.4878C57.5653 33.6591 54.9962 33.2637 53.1695 34.6182L40.8784 43.6717H28.495C27.5967 43.6717 26.9445 42.9273 26.9445 42.0298C26.9445 41.1313 27.6889 40.3869 28.495 40.3869H36.5298C38.0803 40.3869 39.6873 39.2697 39.9563 37.6535C40.2901 35.5999 38.7118 33.8152 36.7095 33.8152H20.191C17.511 33.8152 14.7366 34.765 12.5802 36.5106L7.80552 40.3859L2.11898 40.2934C1.31303 40.2934 0.568481 41.1353 0.568481 42.0287V51.8841C0.568481 52.7898 1.31303 53.5291 2.11898 53.5291H37.6573C39.9194 53.5291 42.1671 52.791 43.9928 51.4477L57.8651 41.2288C59.8674 39.8826 60.2576 37.3156 58.9125 35.4878ZM29.2476 18.9252C28.4672 18.8122 27.4404 18.4426 26.5368 18.114L26.0337 17.9394C24.7501 17.3952 23.3434 18.1551 22.8916 19.3462C22.4398 20.5373 23.1094 22.0365 24.3897 22.4924L24.8677 22.6624C25.7391 22.9767 26.7037 23.2883 27.6802 23.5159V24.7781C27.6802 26.1386 28.7819 27.2425 30.1425 27.2425C31.503 27.2425 32.6069 26.1386 32.6069 24.7781V23.7102C35.2016 23.1225 37.0099 21.4666 37.3405 19.0156C38.2326 13.8763 33.3472 12.4788 30.7257 11.7303L30.182 11.5423C27.4815 10.7763 27.6355 10.4457 27.7074 10.0237C27.8261 9.32893 29.2784 8.99069 31.0148 9.26475C31.5218 9.34494 32.1823 9.52628 33.0325 9.82149C34.3191 10.2611 35.7238 9.58409 36.1663 8.29769C36.6089 7.01129 35.9292 5.60844 34.6425 5.1628C33.8619 4.89306 33.2132 4.71531 32.6074 4.57536V3.42018C32.6074 2.05964 31.5035 0.955811 30.143 0.955811C28.7825 0.955811 27.6807 2.05964 27.6807 3.42018V4.5004C25.089 5.08672 23.2715 6.73168 22.7581 9.18373C21.9674 14.2634 26.927 15.7215 28.7958 16.276L29.463 16.4685C32.714 17.399 32.6616 17.6894 32.5784 18.1772C32.4616 18.8739 31.0137 19.2127 29.2476 18.9252Z" fill="#F2994A"/>
</svg>
