<svg width="45" height="45" viewBox="0 0 45 45" fill="none" xmlns="http://www.w3.org/2000/svg">
<path d="M17.1159 43.3724C18.9861 43.8842 20.9161 44.1449 22.8551 44.1479L23.164 44.1457C24.271 44.1319 25.3565 43.8385 26.3197 43.2928C27.2829 42.747 28.0925 41.9667 28.6732 41.0242C29.8605 39.1052 29.9876 36.746 29.0084 34.7154L28.5747 33.8063C27.5823 31.7428 28.3622 29.8721 29.4246 28.8096C30.487 27.7472 32.3621 26.9674 34.4191 27.9597H34.4213L35.326 28.3956C36.3208 28.8767 37.4211 29.0982 38.5245 29.0396C39.628 28.981 40.6987 28.6442 41.6369 28.0605C42.58 27.4801 43.3609 26.6707 43.9071 25.7074C44.4532 24.7442 44.7469 23.6584 44.7607 22.5512C44.7881 20.5096 44.5277 18.4743 43.9874 16.5053C41.7136 8.12206 34.4519 1.71031 25.9241 0.547124C19.026 -0.388242 12.2529 1.86584 7.36792 6.75296C2.48299 11.6401 0.217957 18.4023 1.1599 25.3091C2.32089 33.8391 8.73483 41.0986 17.1159 43.3724ZM30.5221 9.09904C31.3935 9.09904 32.2293 9.44523 32.8455 10.0614C33.4617 10.6777 33.8079 11.5134 33.8079 12.3849C33.8079 13.2563 33.4617 14.0921 32.8455 14.7083C32.2293 15.3245 31.3935 15.6707 30.5221 15.6707C29.6506 15.6707 28.8148 15.3245 28.1986 14.7083C27.5824 14.0921 27.2362 13.2563 27.2362 12.3849C27.2362 11.5134 27.5824 10.6777 28.1986 10.0614C28.8148 9.44523 29.6506 9.09904 30.5221 9.09904ZM19.5693 6.90849C20.4408 6.90849 21.2765 7.25467 21.8927 7.87089C22.5089 8.4871 22.8551 9.32286 22.8551 10.1943C22.8551 11.0658 22.5089 11.9015 21.8927 12.5178C21.2765 13.134 20.4408 13.4801 19.5693 13.4801C18.6978 13.4801 17.8621 13.134 17.2459 12.5178C16.6297 11.9015 16.2835 11.0658 16.2835 10.1943C16.2835 9.32286 16.6297 8.4871 17.2459 7.87089C17.8621 7.25467 18.6978 6.90849 19.5693 6.90849ZM16.2835 29.9224C16.2835 30.7939 15.9373 31.6297 15.3211 32.2459C14.7049 32.8621 13.8691 33.2083 12.9976 33.2083C12.1262 33.2083 11.2904 32.8621 10.6742 32.2459C10.058 31.6297 9.71181 30.7939 9.71181 29.9224C9.71181 29.051 10.058 28.2152 10.6742 27.599C11.2904 26.9828 12.1262 26.6366 12.9976 26.6366C13.8691 26.6366 14.7049 26.9828 15.3211 27.599C15.9373 28.2152 16.2835 29.051 16.2835 29.9224ZM10.8071 15.6838C11.6788 15.6841 12.5148 16.0307 13.131 16.6473C13.7472 17.264 14.0932 18.1001 14.0929 18.9719C14.0926 19.8436 13.7461 20.6795 13.1294 21.2958C12.5128 21.912 11.6766 22.258 10.8049 22.2577C9.93315 22.2574 9.09723 21.9108 8.48101 21.2942C7.8648 20.6776 7.51878 19.8414 7.51907 18.9697C7.51936 18.0979 7.86594 17.262 8.48256 16.6458C9.09919 16.0296 9.93534 15.6836 10.8071 15.6838Z" fill="#FF9A62"/>
</svg>
