<svg width="45" height="41" viewBox="0 0 45 41" fill="none" xmlns="http://www.w3.org/2000/svg">
<path d="M41.5006 0.574621L13.7594 10.4803V25.8142L15.3979 26.3991L12.9292 31.3366C12.648 31.8979 12.4908 32.5131 12.4683 33.1405C12.4457 33.7679 12.5584 34.3928 12.7985 34.9729C13.0387 35.553 13.4008 36.0746 13.8602 36.5024C14.3197 36.9303 14.8658 37.2543 15.4615 37.4526L24.4077 40.4339C25.4084 40.7602 26.4928 40.7181 27.4653 40.3152C28.4377 39.9123 29.2342 39.1752 29.711 38.2368L32.5653 32.5282L41.5006 35.7199C41.831 35.8377 42.1849 35.8745 42.5325 35.8271C42.8801 35.7798 43.2112 35.6496 43.498 35.4476C43.7848 35.2456 44.0189 34.9776 44.1806 34.6663C44.3423 34.355 44.4268 34.0094 44.4271 33.6585V2.63593C44.4268 2.28512 44.3423 1.93951 44.1806 1.62819C44.0189 1.31686 43.7848 1.04892 43.498 0.846909C43.2112 0.644897 42.8801 0.514724 42.5325 0.46734C42.1849 0.419956 41.831 0.456748 41.5006 0.574621ZM25.7921 36.2785L16.8481 33.2971L19.5534 27.8842L28.4076 31.0474L25.7921 36.2785ZM4.99719 25.8142H9.3783V10.4803H4.99719C2.58101 10.4803 0.616089 12.4452 0.616089 14.8614V21.4331C0.616089 23.8493 2.58101 25.8142 4.99719 25.8142Z" fill="#F2994A"/>
</svg>
