<svg width="49" height="42" viewBox="0 0 49 42" fill="none" xmlns="http://www.w3.org/2000/svg">
<path d="M23.4266 37.7671H5.90213C5.03068 37.7671 4.19491 37.4209 3.5787 36.8047C2.96249 36.1885 2.6163 35.3527 2.6163 34.4813V6.00409C2.6163 5.13264 2.96249 4.29687 3.5787 3.68066C4.19491 3.06445 5.03068 2.71826 5.90213 2.71826H43.1415C44.013 2.71826 44.8488 3.06445 45.465 3.68066C46.0812 4.29687 46.4274 5.13264 46.4274 6.00409V22.304" stroke="#F2994A" stroke-width="4.38111" stroke-linecap="round" stroke-linejoin="round"/>
<path d="M2.6163 6.00409C2.6163 5.13264 2.96249 4.29687 3.5787 3.68066C4.19491 3.06445 5.03068 2.71826 5.90213 2.71826H43.1415C44.013 2.71826 44.8488 3.06445 45.465 3.68066C46.0812 4.29687 46.4274 5.13264 46.4274 6.00409V15.8616H2.6163V6.00409Z" fill="#F2994A" stroke="#F2994A" stroke-width="4.38111"/>
<path d="M42.0463 30.1001L46.4274 34.4812L42.0463 38.8623M35.4746 30.1001L31.0935 34.4812L35.4746 38.8623V30.1001Z" stroke="#F2994A" stroke-width="4.38111" stroke-linecap="round" stroke-linejoin="round" />
<path d="M6.9974 9.28992C6.9974 8.08011 7.97815 7.09936 9.18796 7.09936C10.3978 7.09936 11.3785 8.08011 11.3785 9.28992C11.3785 10.4997 10.3978 11.4805 9.18796 11.4805C7.97815 11.4805 6.9974 10.4997 6.9974 9.28992Z" fill="#F2994A"/>
<path d="M13.5691 9.28992C13.5691 8.08011 14.5498 7.09936 15.7596 7.09936C16.9694 7.09936 17.9502 8.08011 17.9502 9.28992C17.9502 10.4997 16.9694 11.4805 15.7596 11.4805C14.5498 11.4805 13.5691 10.4997 13.5691 9.28992Z" fill="#F2994A"/>
</svg>
