<svg width="44" height="40" viewBox="0 0 44 40" fill="none" xmlns="http://www.w3.org/2000/svg">
<path d="M8.20003 0.527344C6.23926 0.527344 4.35879 1.30626 2.97231 2.69274C1.58583 4.07922 0.806915 5.95968 0.806915 7.92046V25.9925C0.806915 27.9533 1.58583 29.8338 2.97231 31.2203C4.35879 32.6067 6.23926 33.3856 8.20003 33.3856H29.5579C31.5187 33.3856 33.3992 32.6067 34.7857 31.2203C36.1721 29.8338 36.951 27.9533 36.951 25.9925V7.92046C36.951 5.95968 36.1721 4.07922 34.7857 2.69274C33.3992 1.30626 31.5187 0.527344 29.5579 0.527344H8.20003ZM13.9502 23.515V10.398C13.95 10.1003 14.0306 9.80811 14.1836 9.55269C14.3365 9.29727 14.5559 9.0882 14.8185 8.94783C15.081 8.80746 15.3767 8.74105 15.6741 8.75571C15.9714 8.77037 16.2592 8.86555 16.5066 9.03107L26.3542 15.5896C26.5799 15.7395 26.7651 15.9429 26.8931 16.1817C27.0212 16.4205 27.0882 16.6872 27.0882 16.9581C27.0882 17.2291 27.0212 17.4958 26.8931 17.7346C26.7651 17.9734 26.5799 18.1768 26.3542 18.3267L16.5033 24.8852C16.2557 25.05 15.968 25.1445 15.6708 25.1585C15.3737 25.1726 15.0783 25.1057 14.8162 24.9651C14.5541 24.8244 14.3352 24.6152 14.1826 24.3598C14.0301 24.1045 13.9498 23.8125 13.9502 23.515ZM13.9502 39.9573C12.6748 39.9583 11.4167 39.6619 10.2759 39.0915C9.13507 38.5211 8.14303 37.6925 7.37858 36.6715H31.2008C33.5973 36.6715 35.8957 35.7195 37.5903 34.0249C39.2849 32.3303 40.2369 30.0319 40.2369 27.6354V7.099C42.2314 8.59734 43.5227 10.9829 43.5227 13.6707V27.6354C43.5227 30.9034 42.2245 34.0375 39.9137 36.3483C37.6029 38.6591 34.4688 39.9573 31.2008 39.9573H13.9502Z" fill="#FF9A62"/>
</svg>
